<svg width="12" height="8" viewBox="0 0 12 8" fill="none" xmlns="http://www.w3.org/2000/svg">
<path d="M0.119906 1.77533L5.72358 7.37862C5.80364 7.45877 5.89574 7.4989 5.99994 7.4989C6.10413 7.4989 6.19641 7.45877 6.27651 7.37862L11.8797 1.77533C11.96 1.69506 12 1.60295 12 1.49871C12 1.39452 11.9599 1.30228 11.8797 1.22218L11.2786 0.621147C11.1985 0.541001 11.1063 0.500949 11.0021 0.500949C10.8979 0.500949 10.8056 0.541001 10.7255 0.621147L5.99994 5.34662L1.27421 0.620853C1.19411 0.540707 1.10183 0.500908 0.997809 0.500908C0.893446 0.500908 0.801212 0.540959 0.721108 0.620853L0.119949 1.22214C0.039844 1.30224 4.4289e-05 1.39452 4.42981e-05 1.49867C2.34558e-06 1.60295 0.039802 1.69518 0.119906 1.77533Z" fill="#FFA92E"/>
</svg>
